<?xml version="1.0" encoding="UTF-8"?>
<svg xmlns="http://www.w3.org/2000/svg" 
     width="2048" 
     height="2048"
     viewBox="0 0 2048 2048">
  <title>Gorgen Logo Master - Fundo Transparente, Farol Branco</title>
  <desc>Logo oficial do sistema Gorgen - Arquivo Master 2048x2048 - Fundo transparente, farol branco</desc>
  
  <!-- Sem fundo (transparente) -->
  
  <!-- Farol branco -->
  <g transform="translate(1024, 1024) scale(0.150187, -0.150187) translate(-7000, -7500)" fill="#FFFFFF" stroke="none">

<path d="M7040 12134 c-44 -16 -62 -31 -80 -69 -17 -36 -20 -62 -20 -192 l0
-150 -327 -264 c-181 -145 -369 -296 -419 -336 -100 -80 -120 -111 -111 -174
10 -76 75 -119 180 -119 l48 0 -1 -399 -2 -399 -116 -4 c-94 -3 -124 -7 -149
-23 -60 -36 -63 -51 -63 -377 0 -264 2 -297 19 -334 24 -52 68 -74 152 -74
l62 0 -7 -117 c-6 -122 -41 -584 -77 -1033 -22 -280 -48 -616 -79 -1015 -11
-143 -25 -309 -30 -370 -13 -143 -66 -832 -84 -1092 -8 -111 -17 -206 -20
-211 -3 -5 -52 -12 -108 -15 -57 -4 -155 -15 -218 -26 -290 -51 -453 -140
-757 -417 -344 -313 -466 -388 -812 -504 -207 -69 -338 -127 -444 -196 -51
-34 -166 -143 -399 -378 -344 -346 -352 -357 -329 -418 10 -27 10 -27 -22 -21
-129 24 -368 128 -502 218 -98 65 -118 75 -164 75 -75 0 -131 -78 -110 -153
12 -44 66 -94 174 -162 330 -208 702 -298 1098 -267 83 6 188 19 232 27 200
39 454 118 680 213 366 153 448 185 535 211 52 16 118 32 145 35 l50 7 -3 -43
c-6 -68 31 -153 93 -214 157 -158 568 -258 981 -241 327 14 671 94 1029 240
292 118 341 155 332 250 -5 60 -45 105 -99 113 -30 5 -60 -5 -179 -59 -166
-76 -261 -114 -374 -150 -445 -142 -850 -174 -1215 -95 -143 30 -306 102 -305
133 1 6 32 22 70 38 92 36 125 72 125 133 0 112 -73 153 -285 161 -240 9 -402
-32 -826 -212 -485 -206 -731 -274 -1061 -291 -205 -11 -216 -38 117 300 367
373 380 382 718 492 358 117 536 223 840 498 208 188 245 220 312 265 165 113
315 161 564 179 l103 8 -5 -66 c-4 -36 -14 -171 -23 -300 -9 -129 -19 -238
-23 -241 -3 -4 -42 -17 -86 -28 -207 -56 -447 -137 -535 -181 -76 -39 -95 -62
-95 -119 0 -57 23 -96 71 -118 40 -20 30 -22 269 61 88 30 250 80 360 111 110
31 227 64 260 75 262 82 405 131 635 215 346 127 501 177 690 225 314 79 755
162 1191 225 214 30 383 14 509 -50 63 -32 100 -58 210 -151 146 -122 247
-182 370 -222 60 -20 116 -31 310 -62 135 -22 254 -78 380 -179 32 -26 160
-146 284 -268 l225 -221 -92 -32 c-51 -19 -150 -58 -222 -88 -340 -142 -438
-181 -535 -215 -333 -114 -550 -151 -763 -128 -166 18 -357 80 -357 116 0 32
72 84 154 111 101 34 120 46 141 91 34 70 -8 149 -93 177 -169 55 -446 44
-699 -30 -173 -50 -278 -101 -741 -357 -326 -181 -531 -262 -777 -308 -108
-20 -123 -25 -152 -55 -27 -26 -33 -40 -33 -75 0 -56 27 -101 76 -124 34 -16
46 -17 123 -5 115 17 307 70 439 121 123 49 313 144 560 282 199 112 359 193
452 230 84 33 222 73 282 80 l47 6 -19 -42 c-24 -52 -25 -128 -3 -192 44 -131
239 -236 514 -276 131 -19 417 -6 562 25 171 37 397 115 767 266 634 259 858
321 1160 322 232 1 388 -37 634 -152 149 -69 211 -67 251 10 21 41 19 92 -7
131 -45 68 -353 199 -578 246 -68 14 -132 18 -315 18 -212 -1 -240 -3 -354
-28 l-124 -27 -111 92 c-61 51 -203 183 -316 293 -335 327 -489 414 -820 461
-139 19 -248 52 -315 95 -27 17 -95 69 -150 114 -171 140 -242 185 -361 228
-143 51 -292 59 -530 27 -82 -11 -156 -20 -165 -20 -12 0 -18 13 -22 48 -3 26
-33 261 -66 522 -33 261 -90 725 -126 1030 -36 305 -88 736 -115 957 -45 365
-153 1273 -167 1401 l-6 52 64 0 c85 0 127 22 157 80 22 44 23 50 20 335 -3
315 -5 328 -61 369 -25 18 -46 21 -153 25 l-124 3 0 99 c0 93 1 99 20 99 26 0
214 -30 1335 -215 182 -30 461 -75 620 -100 160 -25 400 -64 535 -86 135 -22
358 -58 495 -80 138 -22 319 -52 403 -65 85 -14 155 -24 157 -22 5 4 25 154
25 183 0 19 -6 25 -32 30 -18 3 -150 23 -293 45 -143 22 -330 51 -415 65 -85
13 -270 43 -410 65 -274 43 -470 77 -456 79 4 1 135 -10 290 -24 271 -24 1209
-102 1291 -107 l40 -3 5 104 c3 65 1 105 -5 107 -5 2 -152 15 -325 29 -173 14
-394 32 -490 40 -96 8 -260 22 -365 30 -104 8 -206 17 -225 18 -19 2 293 5
694 5 l729 2 -7 53 c-3 28 -6 78 -6 110 l0 58 -744 -3 c-409 -2 -743 -1 -741
1 5 5 501 46 1110 91 366 28 355 26 355 61 0 15 -5 62 -11 104 l-11 75 -37 0
c-20 0 -142 -9 -271 -20 -129 -11 -293 -24 -365 -30 -71 -6 -292 -24 -490 -40
-346 -29 -412 -33 -390 -25 6 3 231 38 500 80 270 41 531 82 580 90 50 8 167
26 260 40 94 14 175 28 181 30 9 3 6 30 -8 97 -11 51 -23 96 -27 101 -4 4 -86
-6 -182 -22 -279 -47 -759 -125 -1414 -231 -137 -22 -263 -42 -280 -45 -16 -3
-158 -26 -315 -51 -157 -24 -422 -67 -590 -95 -168 -27 -388 -63 -490 -79
-102 -17 -195 -33 -207 -35 -23 -5 -23 -4 -23 90 l0 95 55 0 c103 0 165 50
165 133 0 77 1 76 -600 562 l-245 198 -5 161 c-5 173 -12 197 -63 231 -27 17
-75 27 -97 19z m334 -885 c82 -68 158 -132 170 -141 20 -17 -4 -18 -477 -18
l-498 0 58 48 c32 27 145 119 251 205 l194 157 76 -63 c43 -35 144 -119 226
-188z m196 -819 l0 -400 -125 0 -125 0 0 208 c0 234 -7 272 -65 339 -97 114
-288 107 -380 -13 -49 -65 -54 -92 -55 -321 l0 -213 -125 0 -125 0 0 400 0
400 500 0 500 0 0 -400z m340 -805 l0 -145 -835 0 -835 0 0 145 0 145 835 0
835 0 0 -145z m-221 -592 c12 -104 26 -218 32 -255 5 -37 9 -72 9 -77 0 -8
-198 -11 -646 -11 l-647 0 6 88 c4 48 12 167 19 265 l12 177 596 0 597 0 22
-187z m129 -1108 c4 -3 92 -701 92 -726 0 -18 -25 -19 -795 -19 -669 0 -795 2
-795 14 0 12 41 503 56 671 l6 70 717 -3 c394 -2 717 -5 719 -7z m182 -1503
c0 -4 32 -259 71 -567 38 -308 73 -590 78 -626 l7 -67 -71 -12 c-126 -22 -474
-90 -490 -96 -13 -5 -15 30 -15 297 0 233 -4 319 -15 367 -72 307 -406 448
-665 282 -93 -60 -175 -175 -199 -281 -6 -26 -11 -226 -11 -490 l0 -445 -47
-16 c-27 -9 -153 -53 -282 -97 l-234 -82 7 133 c4 73 13 219 21 323 8 105 26
341 40 525 14 184 34 448 45 585 11 138 20 256 20 263 0 9 181 12 870 12 479
0 870 -3 870 -8z m-761 -641 c17 -12 41 -41 54 -64 21 -41 22 -52 25 -384 l3
-342 -43 -11 c-24 -6 -104 -31 -179 -56 -75 -24 -139 -44 -142 -44 -4 0 -7
174 -7 388 0 355 2 390 19 427 22 47 64 88 106 104 47 17 127 8 164 -18z"/>
<path d="M11127 3395 c-219 -37 -553 -173 -642 -261 -58 -57 -52 -131 14 -187
53 -44 92 -38 234 37 224 118 412 168 632 168 76 0 166 -6 216 -15 98 -18 123
-15 162 21 66 62 54 167 -24 207 -80 42 -420 59 -592 30z"/>
<path d="M4495 3160 c-52 -10 -157 -43 -405 -129 -175 -60 -320 -91 -429 -91
-89 0 -133 -14 -169 -52 -50 -54 -31 -142 38 -183 30 -17 51 -20 146 -18 180
2 368 46 612 142 181 71 242 84 382 79 138 -5 194 -23 415 -126 177 -84 318
-132 475 -164 98 -19 144 -23 310 -22 284 1 372 24 414 108 24 50 15 99 -29
143 -39 39 -69 42 -185 17 -49 -10 -124 -16 -215 -16 -237 1 -385 39 -701 183
-241 109 -315 130 -479 134 -71 2 -152 0 -180 -5z"/>
<path d="M8015 3045 c-133 -23 -254 -63 -381 -124 -137 -66 -200 -116 -210
-165 -8 -45 18 -101 58 -126 56 -34 102 -27 219 34 119 62 231 102 339 122
167 30 286 12 540 -83 334 -124 419 -144 635 -151 188 -5 288 9 452 64 134 44
181 70 210 113 55 81 -1 191 -96 191 -17 0 -77 -17 -133 -39 -165 -62 -241
-76 -408 -75 -127 1 -160 5 -260 31 -63 17 -191 60 -285 97 -93 36 -215 78
-270 92 -125 32 -294 40 -410 19z"/>
  </g>
</svg>